<?xml version="1.0" encoding="utf-8"?>
<!-- Generator: Adobe Illustrator 24.1.2, SVG Export Plug-In . SVG Version: 6.00 Build 0)  -->
<svg version="1.1" id="Capa_1" xmlns="http://www.w3.org/2000/svg" xmlns:xlink="http://www.w3.org/1999/xlink" x="0px" y="0px"
	 viewBox="0 0 177.7 80" style="enable-background:new 0 0 177.7 80;" xml:space="preserve">
<style type="text/css">
	.st0{fill:#6D6E70;}
	.st1{fill:url(#SVGID_1_);}
	.st2{fill:url(#SVGID_2_);}
	.st3{fill:url(#SVGID_3_);}
	.st4{fill:#626D77;}
	.st5{fill:#8699A3;}
	.st6{fill:#8D9AA1;}
	.st7{fill:url(#SVGID_4_);}
	.st8{fill:url(#SVGID_5_);}
	.st9{fill:#B4BDC3;}
	.st10{fill:none;}
	.st11{fill:url(#SVGID_6_);}
	.st12{fill:#505C61;}
	.st13{fill:#0B1F28;}
	.st14{fill:#8F9CA4;}
	.st15{fill:url(#SVGID_7_);}
	.st16{fill:url(#SVGID_8_);}
	.st17{fill:url(#SVGID_9_);}
	.st18{fill:url(#SVGID_10_);}
	.st19{fill:url(#SVGID_11_);}
	.st20{fill:url(#SVGID_12_);}
	.st21{fill:#FFFFFF;}
</style>
<g>
	<polygon class="st0" points="106.39,14.88 94.93,14.88 94.93,64.5 130.14,64.5 130.14,54.84 106.39,54.84 	"/>
	<g>
		<path class="st0" d="M155.36,45.58h9.33v8.68c-1.72,0.66-5.07,1.31-8.27,1.31c-10.32,0-13.76-5.25-13.76-15.89
			c0-10.15,3.27-16.13,13.59-16.13c5.74,0,9.01,1.8,11.71,5.24l7.13-6.55c-4.34-6.22-11.96-8.11-19.08-8.11
			c-16.05,0-24.48,8.76-24.48,25.46c0,16.63,7.62,25.63,24.4,25.63c7.7,0,15.23-1.97,19.33-4.83V36.33h-19.9V45.58z"/>
	</g>
	<g>
		
			<radialGradient id="SVGID_1_" cx="-265.3434" cy="354.0966" r="1.253" gradientTransform="matrix(31.9334 0 0 -31.9334 8511.2813 11346.2314)" gradientUnits="userSpaceOnUse">
			<stop  offset="0" style="stop-color:#BF0C3F"/>
			<stop  offset="0.5" style="stop-color:#BF0C3F"/>
			<stop  offset="0.753" style="stop-color:#BD0B3E"/>
			<stop  offset="0.8595" style="stop-color:#B6093A"/>
			<stop  offset="0.9381" style="stop-color:#A90534"/>
			<stop  offset="1" style="stop-color:#99002C"/>
		</radialGradient>
		<path class="st1" d="M39.37,1.52C18.2,1.52,1.01,18.7,1.01,39.9c0,21.2,17.19,38.38,38.36,38.38c21.12,0,38.24-17.02,38.41-38.08
			v-0.6C77.61,18.54,60.49,1.52,39.37,1.52z"/>
		<linearGradient id="SVGID_2_" gradientUnits="userSpaceOnUse" x1="23.6682" y1="6.4767" x2="43.9177" y2="62.1115">
			<stop  offset="0" style="stop-color:#F38895"/>
			<stop  offset="0.0864" style="stop-color:#EB7588"/>
			<stop  offset="0.3141" style="stop-color:#D84869"/>
			<stop  offset="0.5173" style="stop-color:#CA2752"/>
			<stop  offset="0.6866" style="stop-color:#C21344"/>
			<stop  offset="0.8011" style="stop-color:#BF0C3F"/>
			<stop  offset="1" style="stop-color:#BF0C3F"/>
		</linearGradient>
		<path class="st2" d="M13.4,13.92C0.58,26.75-0.72,46.29,10.54,57.56c11.26,11.26,30.79,9.97,43.62-2.87
			c12.85-12.85,14.14-32.39,2.89-43.66c-5.14-5.14-12.01-7.67-19.18-7.67C29.34,3.36,20.38,6.94,13.4,13.92"/>
		<linearGradient id="SVGID_3_" gradientUnits="userSpaceOnUse" x1="13.7759" y1="20.2268" x2="60.2219" y2="66.6728">
			<stop  offset="0" style="stop-color:#CD425C"/>
			<stop  offset="0.0892" style="stop-color:#BE3351"/>
			<stop  offset="0.2493" style="stop-color:#AA1F43"/>
			<stop  offset="0.4304" style="stop-color:#9B1039"/>
			<stop  offset="0.648" style="stop-color:#930833"/>
			<stop  offset="1" style="stop-color:#900531"/>
		</linearGradient>
		<path class="st3" d="M37.4,57.1l0.95-0.54l0-32.43l-0.24-0.38l0.24-0.07v-0.05h0.16l2.87-0.98l0.52,0.89c0,0,0.08,0.08,0.07,0.24
			l-0.03,29.53h6.98l0.56,0.88c0.05,0.07,0.09,0.14,0.09,0.36v2.97c0,0.16-0.1,0.24-0.21,0.25H38.67c-0.26,0.01-0.48-0.11-0.54-0.16
			L37.4,57.1z M72.03,38.13l-23.74,0.01v3.8l0.59,0.79l0,0c0,0,0.07,0.08,0.2,0.08h18.1h1.74h0.01h0.02
			c-1.03,15.02-13.7,26.78-28.83,26.78c-7.71,0-14.97-3-20.44-8.42c-5.45-5.43-8.45-12.63-8.45-20.3c0-7.68,2.84-15.04,8.29-20.45
			c5.48-5.41,12.38-8.26,20.64-8.44l1.56-0.02h0.17c0.11-0.01,0.2-0.01,0.2-0.25V8.58c0-0.23-0.08-0.33-0.08-0.34l-0.7-0.88
			l-1.58,0.23l-0.8,0.26C20.9,7.86,7.38,22.93,7.38,40.87c0,8.68,3.41,16.86,9.59,23c6.17,6.15,14.35,9.26,23.08,9.26
			c8.77,0,17.01-3.31,23.17-9.45c6.19-6.14,9.59-14.32,9.59-23V38.8L72.03,38.13z M27.61,23.1c-2.85,0-5.16,2.3-5.16,5.13
			c0,2.82,2.31,5.11,5.16,5.11c2.85,0,5.16-2.29,5.16-5.11C32.77,25.4,30.46,23.1,27.61,23.1z"/>
		<polygon class="st4" points="38.18,56.35 37.4,57.1 48.91,57.1 48.16,56.33 		"/>
		<polygon class="st5" points="48.16,54.04 48.91,53.31 41.38,53.31 40.48,54.04 		"/>
		<polygon class="st6" points="41.38,22.65 37.4,22.65 38.15,23.37 40.52,23.36 		"/>
		<linearGradient id="SVGID_4_" gradientUnits="userSpaceOnUse" x1="40.5246" y1="38.3166" x2="41.3766" y2="38.3166">
			<stop  offset="0" style="stop-color:#B4BDC3"/>
			<stop  offset="0.0397" style="stop-color:#AEB7BD"/>
			<stop  offset="0.4983" style="stop-color:#6C737A"/>
			<stop  offset="0.8304" style="stop-color:#434950"/>
			<stop  offset="1" style="stop-color:#333940"/>
		</linearGradient>
		<polygon class="st7" points="40.55,53.98 41.38,53.31 41.38,22.65 40.52,23.36 		"/>
		<linearGradient id="SVGID_5_" gradientUnits="userSpaceOnUse" x1="48.1616" y1="55.2036" x2="48.9114" y2="55.2036">
			<stop  offset="0" style="stop-color:#B3BBC1"/>
			<stop  offset="0.0806" style="stop-color:#A6AEB4"/>
			<stop  offset="0.5196" style="stop-color:#636B70"/>
			<stop  offset="0.8376" style="stop-color:#3A4246"/>
			<stop  offset="1" style="stop-color:#2A3236"/>
		</linearGradient>
		<polygon class="st8" points="48.16,54.04 48.16,56.33 48.91,57.1 48.91,53.31 		"/>
		<polygon class="st9" points="37.4,22.65 37.4,57.1 38.18,56.35 38.15,23.37 		"/>
		<path class="st10" d="M22.86,27.64c0,2.34,1.92,4.24,4.27,4.24c2.35,0,4.26-1.9,4.26-4.24c0-2.35-1.92-4.25-4.26-4.25
			C24.77,23.39,22.86,25.29,22.86,27.64z"/>
		
			<linearGradient id="SVGID_6_" gradientUnits="userSpaceOnUse" x1="-268.9224" y1="369.8931" x2="-268.049" y2="369.8931" gradientTransform="matrix(8.1027 8.1027 8.1027 -8.1027 -794.5609 5200.2183)">
			<stop  offset="0" style="stop-color:#ABBAC2"/>
			<stop  offset="1" style="stop-color:#262A30"/>
		</linearGradient>
		<path class="st11" d="M22.11,27.64c0,2.76,2.25,4.99,5.01,4.99c2.77,0,5.01-2.23,5.01-4.99c0-2.76-2.24-5.01-5.01-5.01
			C24.36,22.64,22.11,24.88,22.11,27.64z M31.39,27.64c0,2.34-1.92,4.24-4.26,4.24c-2.36,0-4.27-1.9-4.27-4.24
			c0-2.35,1.92-4.25,4.27-4.25C29.47,23.39,31.39,25.29,31.39,27.64z"/>
		<polygon class="st12" points="68.78,41.07 48.89,41.05 48.15,41.82 68.02,41.82 68.42,41.41 		"/>
		<polygon class="st13" points="41.31,11.2 41.31,11.2 41.31,11.2 		"/>
		<polygon class="st14" points="48.89,38.8 71.14,38.77 71.89,38.01 48.15,38.01 		"/>
		
			<linearGradient id="SVGID_7_" gradientUnits="userSpaceOnUse" x1="-269.4131" y1="346.4605" x2="-268.5398" y2="346.4605" gradientTransform="matrix(53.1048 53.1048 53.1048 -53.1048 -4078.1663 32725.5566)">
			<stop  offset="0" style="stop-color:#B4BDC3"/>
			<stop  offset="1" style="stop-color:#3E454D"/>
		</linearGradient>
		<path class="st15" d="M71.89,39.89v-1.88l-0.75,0.76v1.12c0,8.49-3.3,16.47-9.29,22.47c-5.99,6.01-13.99,9.31-22.49,9.31
			c-8.47,0-16.45-3.31-22.44-9.31c-6-6.01-9.3-13.99-9.3-22.47C7.6,22.36,21.85,8.1,39.35,8.1l1.21-0.02l0.74-0.72l-1.96-0.02
			c-17.91,0-32.5,14.59-32.5,32.54c0,8.68,3.39,16.86,9.52,23c6.13,6.14,14.29,9.53,22.97,9.53c8.71,0,16.89-3.39,23.02-9.53
			C68.52,56.74,71.89,48.57,71.89,39.89z"/>
		
			<linearGradient id="SVGID_8_" gradientUnits="userSpaceOnUse" x1="-272.8024" y1="338.8354" x2="-271.9291" y2="338.8354" gradientTransform="matrix(-67.4051 0 0 67.4051 -18319.4844 -22799.3438)">
			<stop  offset="0" style="stop-color:#B4BDC3"/>
			<stop  offset="1" style="stop-color:#485159"/>
		</linearGradient>
		<path class="st16" d="M40.56,10.45l-0.84-0.02h-0.79c-7.69,0.11-14.91,3.17-20.4,8.62c-5.55,5.56-8.61,12.96-8.61,20.84
			c0,7.87,3.06,15.27,8.61,20.83c5.49,5.48,12.74,8.54,20.46,8.64h0.76c15.27-0.19,27.99-12.19,29.02-27.47l0.03-0.81l-0.37,0.34
			l-0.4,0.41C67,56.85,54.41,68.61,39.37,68.61c-7.67,0-14.87-3-20.31-8.42c-5.41-5.42-8.39-12.63-8.39-20.3
			c0-7.68,2.98-14.89,8.39-20.31c5.44-5.41,12.65-8.4,20.31-8.4l1.94,0.02L40.56,10.45z"/>
		<path class="st13" d="M41.31,11.19"/>
		
			<linearGradient id="SVGID_9_" gradientUnits="userSpaceOnUse" x1="-272.3947" y1="338.4097" x2="-272.3947" y2="338.4097" gradientTransform="matrix(-67.4051 0 0 67.4051 -18319.4844 -22799.3438)">
			<stop  offset="0" style="stop-color:#A9B7C1"/>
			<stop  offset="1" style="stop-color:#0B1F28"/>
		</linearGradient>
		<path class="st17" d="M41.31,11.19"/>
		<polygon class="st9" points="48.89,38.8 48.15,38.01 48.15,41.82 48.89,41.05 		"/>
		<linearGradient id="SVGID_10_" gradientUnits="userSpaceOnUse" x1="40.5634" y1="9.2824" x2="41.3063" y2="9.2824">
			<stop  offset="0" style="stop-color:#B3BBC1"/>
			<stop  offset="0.0806" style="stop-color:#A6AEB4"/>
			<stop  offset="0.5196" style="stop-color:#636B70"/>
			<stop  offset="0.8376" style="stop-color:#3A4246"/>
			<stop  offset="1" style="stop-color:#2A3236"/>
		</linearGradient>
		<polygon class="st18" points="40.56,10.45 41.31,11.2 41.31,7.37 40.56,8.09 		"/>
		
			<radialGradient id="SVGID_11_" cx="-12.8161" cy="-511.5081" r="70.4653" gradientTransform="matrix(0.6971 0 0 0.6971 35.3413 382.8544)" gradientUnits="userSpaceOnUse">
			<stop  offset="0" style="stop-color:#FFFFFF"/>
			<stop  offset="0.35" style="stop-color:#FFFFFF"/>
			<stop  offset="0.511" style="stop-color:#FBFCFC"/>
			<stop  offset="0.6773" style="stop-color:#EEF2F3"/>
			<stop  offset="0.8453" style="stop-color:#DAE1E5"/>
			<stop  offset="1" style="stop-color:#C0CCD2"/>
		</radialGradient>
		<path class="st19" d="M37.82,23.06v33.64h10.69v-3h-7.63V23.06H37.82z M38.94,7.76C21.45,7.97,7.24,22.3,7.24,39.89
			c0,8.59,3.34,16.64,9.41,22.71c6.06,6.07,14.14,9.41,22.69,9.41c8.6,0,16.68-3.34,22.74-9.41c6.07-6.07,9.4-14.13,9.4-22.71v-1.46
			l-1.27,0H48.54v2.98h19.87c0,0.07,0,0.38-0.01,0.44c-1.03,15.14-13.65,27.17-29.06,27.17c-7.77,0-15.08-3.03-20.59-8.54
			c-5.48-5.49-8.51-12.81-8.51-20.59c0-7.79,3.03-15.11,8.51-20.6c5.52-5.48,12.83-8.52,20.59-8.52c0.33,0,1.17,0,1.54,0.01V7.77
			c-0.3,0-0.81-0.01-1.2-0.02H38.94z"/>
		
			<radialGradient id="SVGID_12_" cx="-14.55" cy="-511.9918" r="10.2893" gradientTransform="matrix(0.6971 0 0 0.6971 35.3413 382.8544)" gradientUnits="userSpaceOnUse">
			<stop  offset="0" style="stop-color:#FFFFFF"/>
			<stop  offset="0.35" style="stop-color:#FFFFFF"/>
			<stop  offset="0.5369" style="stop-color:#FBFCFC"/>
			<stop  offset="0.7305" style="stop-color:#EEF2F4"/>
			<stop  offset="0.9264" style="stop-color:#DAE2E6"/>
			<stop  offset="1" style="stop-color:#D0DADF"/>
		</radialGradient>
		<path class="st20" d="M22.49,27.64c0,2.54,2.08,4.59,4.61,4.59c2.53,0,4.61-2.05,4.61-4.59c0-2.56-2.07-4.6-4.61-4.6
			C24.57,23.04,22.49,25.09,22.49,27.64"/>
		<g>
			<path class="st21" d="M27.94,23.87c1.06,0,2.02,0.38,2.8,0.98c-0.84-1.09-2.15-1.81-3.62-1.81c-2.54,0-4.61,2.05-4.61,4.6
				c0,1.47,0.71,2.76,1.79,3.6c-0.59-0.77-0.96-1.72-0.96-2.77C23.32,25.92,25.4,23.87,27.94,23.87"/>
			<path class="st21" d="M40.88,7.77c-0.4-0.01-1.16-0.02-1.55-0.02c-17.68,0-32.09,14.42-32.09,32.14c0,8.59,3.34,16.64,9.4,22.72
				c0.19,0.19,0.4,0.38,0.59,0.57c-5.72-6.01-8.87-13.82-8.87-22.16C8.36,23.34,20.88,8.66,40.88,7.77"/>
			<path class="st21" d="M40.88,53.7c0,0,2.2,0.64,7.63,0.64V53.7H40.88z"/>
			<path class="st21" d="M40.88,24v-0.95h-3.06v33.64c0,0,0.96-5.12,0.96-32.69H40.88z"/>
			<path class="st21" d="M71.46,38.42l-22.93,0.01v2.98h0.83v-2.15C69.35,39.26,71.46,38.42,71.46,38.42"/>
			<path class="st21" d="M68.42,41.41c-0.01,0.06-0.01,0.39-0.02,0.44c-1.02,15.13-13.65,27.16-29.05,27.16
				c-7.77,0-15.08-3.03-20.59-8.54c-3.59-3.59-6.13-7.96-7.45-12.73c3.45,12.54,14.91,21.63,28.54,21.63
				c14.63,0,28.11-11.46,28.95-27.95H68.42z"/>
		</g>
	</g>
</g>
</svg>
