<?xml version="1.0" encoding="utf-8"?>
<!-- Generator: Adobe Illustrator 24.1.2, SVG Export Plug-In . SVG Version: 6.00 Build 0)  -->
<svg version="1.1" id="Capa_1" xmlns="http://www.w3.org/2000/svg" xmlns:xlink="http://www.w3.org/1999/xlink" x="0px" y="0px"
	 viewBox="0 0 80 128.06" style="enable-background:new 0 0 80 128.06;" xml:space="preserve">
<style type="text/css">
	.st0{fill:url(#SVGID_1_);}
	.st1{fill:url(#SVGID_2_);}
	.st2{fill:url(#SVGID_3_);}
	.st3{fill:#626D77;}
	.st4{fill:#8699A3;}
	.st5{fill:#8D9AA1;}
	.st6{fill:url(#SVGID_4_);}
	.st7{fill:url(#SVGID_5_);}
	.st8{fill:#B4BDC3;}
	.st9{fill:none;}
	.st10{fill:url(#SVGID_6_);}
	.st11{fill:#505C61;}
	.st12{fill:#0B1F28;}
	.st13{fill:#8F9CA4;}
	.st14{fill:url(#SVGID_7_);}
	.st15{fill:url(#SVGID_8_);}
	.st16{fill:url(#SVGID_9_);}
	.st17{fill:url(#SVGID_10_);}
	.st18{fill:url(#SVGID_11_);}
	.st19{fill:url(#SVGID_12_);}
	.st20{fill:#FFFFFF;}
	.st21{fill:#6D6E70;}
</style>
<g>
	
		<radialGradient id="SVGID_1_" cx="-305.7231" cy="397.3418" r="1.2325" gradientTransform="matrix(31.2502 0 0 -31.2512 9593.125 12456.3086)" gradientUnits="userSpaceOnUse">
		<stop  offset="0" style="stop-color:#BF0C3F"/>
		<stop  offset="0.5" style="stop-color:#BF0C3F"/>
		<stop  offset="0.753" style="stop-color:#BD0B3E"/>
		<stop  offset="0.8595" style="stop-color:#B6093A"/>
		<stop  offset="0.9381" style="stop-color:#A90534"/>
		<stop  offset="1" style="stop-color:#99002C"/>
	</radialGradient>
	<path class="st0" d="M40.57,3.08c-20.38,0-36.92,16.54-36.92,36.95c0,20.41,16.55,36.94,36.92,36.94
		c20.33,0,36.81-16.38,36.97-36.66v-0.58C77.38,19.47,60.9,3.08,40.57,3.08z"/>
	<linearGradient id="SVGID_2_" gradientUnits="userSpaceOnUse" x1="25.4548" y1="7.8582" x2="44.9468" y2="61.4122">
		<stop  offset="0" style="stop-color:#F38895"/>
		<stop  offset="0.0864" style="stop-color:#EB7588"/>
		<stop  offset="0.3141" style="stop-color:#D84869"/>
		<stop  offset="0.5173" style="stop-color:#CA2752"/>
		<stop  offset="0.6866" style="stop-color:#C21344"/>
		<stop  offset="0.8011" style="stop-color:#BF0C3F"/>
		<stop  offset="1" style="stop-color:#BF0C3F"/>
	</linearGradient>
	<path class="st1" d="M15.57,15.02C3.23,27.37,1.98,46.18,12.82,57.03c10.84,10.84,29.64,9.6,41.99-2.76
		c12.37-12.37,13.61-31.18,2.78-42.02c-4.95-4.95-11.56-7.38-18.47-7.38C30.91,4.86,22.29,8.3,15.57,15.02"/>
	<linearGradient id="SVGID_3_" gradientUnits="userSpaceOnUse" x1="15.9326" y1="21.0944" x2="60.6407" y2="65.8025">
		<stop  offset="0" style="stop-color:#CD425C"/>
		<stop  offset="0.0892" style="stop-color:#BE3351"/>
		<stop  offset="0.2493" style="stop-color:#AA1F43"/>
		<stop  offset="0.4304" style="stop-color:#9B1039"/>
		<stop  offset="0.648" style="stop-color:#930833"/>
		<stop  offset="1" style="stop-color:#900531"/>
	</linearGradient>
	<path class="st2" d="M38.67,56.59l0.91-0.52l0-31.21l-0.23-0.36l0.23-0.07v-0.05h0.16l2.76-0.95l0.5,0.85c0,0,0.07,0.07,0.07,0.24
		l-0.03,28.42h6.72l0.54,0.84c0.05,0.06,0.08,0.13,0.08,0.35v2.86c0,0.16-0.1,0.23-0.21,0.24H39.89c-0.25,0.01-0.46-0.11-0.52-0.15
		L38.67,56.59z M72,38.33l-22.85,0.01V42l0.57,0.76l0,0c0,0,0.07,0.08,0.19,0.08h17.42h1.68h0.01h0.02
		c-0.99,14.46-13.18,25.78-27.75,25.78c-7.42,0-14.41-2.88-19.67-8.1c-5.24-5.22-8.13-12.16-8.13-19.54
		c0-7.39,2.73-14.48,7.98-19.69c5.28-5.21,11.91-7.95,19.86-8.13l1.5-0.02h0.17c0.1-0.01,0.19-0.01,0.19-0.24v-3
		c0-0.22-0.07-0.32-0.07-0.32l-0.67-0.85l-1.52,0.22l-0.77,0.25c-17.35,0-30.37,14.51-30.37,31.78c0,8.36,3.28,16.23,9.23,22.14
		c5.94,5.92,13.81,8.91,22.22,8.91c8.44,0,16.37-3.18,22.3-9.1c5.95-5.91,9.23-13.78,9.23-22.14v-1.8L72,38.33z M29.25,23.86
		c-2.75,0-4.97,2.21-4.97,4.94c0,2.72,2.22,4.92,4.97,4.92c2.74,0,4.97-2.21,4.97-4.92C34.22,26.08,32,23.86,29.25,23.86z"/>
	<polygon class="st3" points="39.42,55.87 38.67,56.59 49.75,56.59 49.03,55.85 	"/>
	<polygon class="st4" points="49.03,53.64 49.75,52.94 42.5,52.94 41.64,53.64 	"/>
	<polygon class="st5" points="42.5,23.43 38.67,23.43 39.39,24.11 41.68,24.11 	"/>
	<linearGradient id="SVGID_4_" gradientUnits="userSpaceOnUse" x1="41.6804" y1="38.5072" x2="42.5006" y2="38.5072">
		<stop  offset="0" style="stop-color:#B4BDC3"/>
		<stop  offset="0.0397" style="stop-color:#AEB7BD"/>
		<stop  offset="0.4983" style="stop-color:#6C737A"/>
		<stop  offset="0.8304" style="stop-color:#434950"/>
		<stop  offset="1" style="stop-color:#333940"/>
	</linearGradient>
	<polygon class="st6" points="41.7,53.59 42.5,52.94 42.5,23.43 41.68,24.11 	"/>
	<linearGradient id="SVGID_5_" gradientUnits="userSpaceOnUse" x1="49.0316" y1="54.7627" x2="49.7534" y2="54.7627">
		<stop  offset="0" style="stop-color:#B3BBC1"/>
		<stop  offset="0.0806" style="stop-color:#A6AEB4"/>
		<stop  offset="0.5196" style="stop-color:#636B70"/>
		<stop  offset="0.8376" style="stop-color:#3A4246"/>
		<stop  offset="1" style="stop-color:#2A3236"/>
	</linearGradient>
	<polygon class="st7" points="49.03,53.64 49.03,55.85 49.75,56.59 49.75,52.94 	"/>
	<polygon class="st8" points="38.67,23.43 38.67,56.59 39.42,55.87 39.39,24.11 	"/>
	<path class="st9" d="M24.67,28.23c0,2.26,1.84,4.08,4.11,4.08c2.26,0,4.1-1.83,4.1-4.08c0-2.26-1.84-4.1-4.1-4.1
		C26.52,24.14,24.67,25.97,24.67,28.23z"/>
	
		<linearGradient id="SVGID_6_" gradientUnits="userSpaceOnUse" x1="-310.8384" y1="417.0894" x2="-309.9977" y2="417.0894" gradientTransform="matrix(8.1027 8.1027 8.1027 -8.1027 -835.5556 5922.9912)">
		<stop  offset="0" style="stop-color:#ABBAC2"/>
		<stop  offset="1" style="stop-color:#262A30"/>
	</linearGradient>
	<path class="st10" d="M23.96,28.23c0,2.65,2.16,4.81,4.82,4.81c2.67,0,4.82-2.15,4.82-4.81c0-2.66-2.15-4.82-4.82-4.82
		C26.12,23.41,23.96,25.58,23.96,28.23z M32.89,28.23c0,2.26-1.84,4.08-4.1,4.08c-2.27,0-4.11-1.83-4.11-4.08
		c0-2.26,1.84-4.1,4.11-4.1C31.04,24.14,32.89,25.97,32.89,28.23z"/>
	<polygon class="st11" points="68.88,41.16 49.73,41.13 49.02,41.88 68.15,41.88 68.53,41.49 	"/>
	<polygon class="st12" points="42.43,12.4 42.43,12.4 42.43,12.4 	"/>
	<polygon class="st13" points="49.73,38.98 71.15,38.94 71.87,38.21 49.02,38.22 	"/>
	
		<linearGradient id="SVGID_7_" gradientUnits="userSpaceOnUse" x1="-311.4624" y1="389.2092" x2="-310.6217" y2="389.2092" gradientTransform="matrix(53.1048 53.1048 53.1048 -53.1048 -4113.1372 37229.6211)">
		<stop  offset="0" style="stop-color:#B4BDC3"/>
		<stop  offset="1" style="stop-color:#3E454D"/>
	</linearGradient>
	<path class="st14" d="M71.87,40.02v-1.81l-0.72,0.73v1.08c0,8.17-3.17,15.85-8.95,21.63c-5.77,5.78-13.46,8.97-21.65,8.97
		c-8.16,0-15.84-3.18-21.6-8.97c-5.77-5.79-8.96-13.47-8.96-21.63c0-16.88,13.71-30.6,30.56-30.6l1.17-0.01l0.72-0.69L40.55,8.7
		C23.31,8.7,9.27,22.75,9.27,40.02c0,8.36,3.26,16.23,9.17,22.14c5.9,5.91,13.76,9.18,22.11,9.18c8.38,0,16.26-3.26,22.16-9.18
		C68.62,56.24,71.87,48.38,71.87,40.02z"/>
	
		<linearGradient id="SVGID_8_" gradientUnits="userSpaceOnUse" x1="-315.5074" y1="380.1606" x2="-314.6668" y2="380.1606" gradientTransform="matrix(-67.4051 0 0 67.4051 -21197.9238 -25584.7363)">
		<stop  offset="0" style="stop-color:#B4BDC3"/>
		<stop  offset="1" style="stop-color:#485159"/>
	</linearGradient>
	<path class="st15" d="M41.72,11.68l-0.81-0.02h-0.76c-7.4,0.11-14.35,3.05-19.64,8.3c-5.34,5.35-8.29,12.48-8.29,20.06
		c0,7.58,2.94,14.7,8.29,20.05c5.29,5.27,12.27,8.22,19.69,8.31h0.73c14.7-0.19,26.94-11.74,27.93-26.44l0.03-0.78l-0.36,0.33
		l-0.38,0.4c-0.98,14.46-13.1,25.78-27.58,25.78c-7.38,0-14.32-2.88-19.55-8.1c-5.21-5.22-8.08-12.16-8.08-19.54
		c0-7.39,2.87-14.34,8.08-19.55c5.24-5.2,12.18-8.08,19.55-8.08l1.86,0.02L41.72,11.68z"/>
	<path class="st12" d="M42.43,12.4"/>
	
		<linearGradient id="SVGID_9_" gradientUnits="userSpaceOnUse" x1="-315.115" y1="379.7507" x2="-315.115" y2="379.7507" gradientTransform="matrix(-67.4051 0 0 67.4051 -21197.9238 -25584.7363)">
		<stop  offset="0" style="stop-color:#A9B7C1"/>
		<stop  offset="1" style="stop-color:#0B1F28"/>
	</linearGradient>
	<path class="st16" d="M42.43,12.4"/>
	<polygon class="st8" points="49.73,38.98 49.02,38.22 49.02,41.88 49.73,41.13 	"/>
	<linearGradient id="SVGID_10_" gradientUnits="userSpaceOnUse" x1="41.7179" y1="10.559" x2="42.4329" y2="10.559">
		<stop  offset="0" style="stop-color:#B3BBC1"/>
		<stop  offset="0.0806" style="stop-color:#A6AEB4"/>
		<stop  offset="0.5196" style="stop-color:#636B70"/>
		<stop  offset="0.8376" style="stop-color:#3A4246"/>
		<stop  offset="1" style="stop-color:#2A3236"/>
	</linearGradient>
	<polygon class="st17" points="41.72,11.69 42.43,12.4 42.43,8.71 41.72,9.41 	"/>
	
		<radialGradient id="SVGID_11_" cx="22.9602" cy="-528.6857" r="69.3103" gradientTransform="matrix(0.6822 0 0 0.6822 12.4281 387.5922)" gradientUnits="userSpaceOnUse">
		<stop  offset="0" style="stop-color:#FFFFFF"/>
		<stop  offset="0.35" style="stop-color:#FFFFFF"/>
		<stop  offset="0.511" style="stop-color:#FBFCFC"/>
		<stop  offset="0.6773" style="stop-color:#EEF2F3"/>
		<stop  offset="0.8453" style="stop-color:#DAE1E5"/>
		<stop  offset="1" style="stop-color:#C0CCD2"/>
	</radialGradient>
	<path class="st18" d="M39.08,23.82V56.2h10.29v-2.89h-7.34V23.82H39.08z M40.15,9.09c-16.84,0.2-30.51,14-30.51,30.93
		c0,8.26,3.22,16.02,9.05,21.86c5.83,5.84,13.61,9.06,21.84,9.06c8.28,0,16.05-3.22,21.88-9.06c5.84-5.84,9.05-13.6,9.05-21.86
		v-1.41l-1.22,0H49.4v2.87h19.13c0,0.07,0,0.36-0.01,0.42c-0.99,14.57-13.14,26.15-27.97,26.15c-7.48,0-14.51-2.92-19.82-8.22
		c-5.28-5.29-8.19-12.33-8.19-19.82c0-7.5,2.92-14.54,8.19-19.83c5.31-5.28,12.35-8.2,19.82-8.2c0.32,0,1.12,0,1.48,0.01v-2.9
		c-0.29,0-0.78-0.01-1.16-0.02H40.15z"/>
	
		<radialGradient id="SVGID_12_" cx="21.2546" cy="-529.1614" r="10.1206" gradientTransform="matrix(0.6822 0 0 0.6822 12.4281 387.5922)" gradientUnits="userSpaceOnUse">
		<stop  offset="0" style="stop-color:#FFFFFF"/>
		<stop  offset="0.35" style="stop-color:#FFFFFF"/>
		<stop  offset="0.5369" style="stop-color:#FBFCFC"/>
		<stop  offset="0.7305" style="stop-color:#EEF2F4"/>
		<stop  offset="0.9264" style="stop-color:#DAE2E6"/>
		<stop  offset="1" style="stop-color:#D0DADF"/>
	</radialGradient>
	<path class="st19" d="M24.33,28.23c0,2.44,2,4.42,4.44,4.42c2.44,0,4.43-1.97,4.43-4.42c0-2.46-2-4.43-4.43-4.43
		C26.33,23.8,24.33,25.77,24.33,28.23"/>
	<g>
		<path class="st20" d="M29.56,24.6c1.02,0,1.94,0.36,2.69,0.94c-0.81-1.05-2.07-1.74-3.49-1.74c-2.44,0-4.44,1.97-4.44,4.43
			c0,1.41,0.68,2.66,1.72,3.46c-0.57-0.74-0.93-1.65-0.93-2.67C25.12,26.58,27.12,24.6,29.56,24.6"/>
		<path class="st20" d="M42.03,9.11c-0.39-0.01-1.12-0.02-1.49-0.02c-17.02,0-30.89,13.88-30.89,30.93c0,8.27,3.22,16.02,9.05,21.87
			c0.19,0.19,0.38,0.36,0.57,0.55c-5.5-5.78-8.54-13.31-8.54-21.33C10.72,24.09,22.77,9.96,42.03,9.11"/>
		<path class="st20" d="M42.03,53.31c0,0,2.12,0.62,7.34,0.62v-0.62H42.03z"/>
		<path class="st20" d="M42.03,24.73v-0.91h-2.95V56.2c0,0,0.92-4.93,0.92-31.47H42.03z"/>
		<path class="st20" d="M71.46,38.61l-22.07,0v2.87h0.8v-2.07C69.42,39.41,71.46,38.61,71.46,38.61"/>
		<path class="st20" d="M68.53,41.49c-0.01,0.06-0.01,0.37-0.02,0.43c-0.98,14.56-13.14,26.14-27.96,26.14
			c-7.48,0-14.51-2.92-19.82-8.22c-3.46-3.46-5.9-7.67-7.17-12.26c3.32,12.07,14.36,20.82,27.47,20.82
			c14.08,0,27.06-11.03,27.86-26.91H68.53z"/>
	</g>
</g>
<g>
	<polygon class="st21" points="21.73,90.28 13.78,90.28 13.78,124.7 38.21,124.7 38.21,118 21.73,118 	"/>
	<g>
		<path class="st21" d="M55.71,111.58h6.48v6.02c-1.2,0.46-3.52,0.91-5.74,0.91c-7.16,0-9.54-3.64-9.54-11.02
			c0-7.04,2.27-11.19,9.43-11.19c3.98,0,6.25,1.25,8.12,3.64l4.95-4.55c-3.01-4.32-8.3-5.62-13.24-5.62
			c-11.13,0-16.99,6.08-16.99,17.67c0,11.54,5.28,17.78,16.93,17.78c5.34,0,10.57-1.36,13.41-3.35v-16.7H55.71V111.58z"/>
	</g>
</g>
</svg>
