<?xml version="1.0" encoding="utf-8"?>
<!-- Generator: Adobe Illustrator 24.1.2, SVG Export Plug-In . SVG Version: 6.00 Build 0)  -->
<svg version="1.1" id="Capa_1" xmlns="http://www.w3.org/2000/svg" xmlns:xlink="http://www.w3.org/1999/xlink" x="0px" y="0px"
	 viewBox="0 0 163.2 80" style="enable-background:new 0 0 163.2 80;" xml:space="preserve">
<style type="text/css">
	.st0{fill:#6D6E70;}
	.st1{fill:url(#SVGID_1_);}
	.st2{fill:url(#SVGID_2_);}
	.st3{fill:url(#SVGID_3_);}
	.st4{fill:#626D77;}
	.st5{fill:#8699A3;}
	.st6{fill:#8D9AA1;}
	.st7{fill:url(#SVGID_4_);}
	.st8{fill:url(#SVGID_5_);}
	.st9{fill:#B4BDC3;}
	.st10{fill:none;}
	.st11{fill:url(#SVGID_6_);}
	.st12{fill:#505C61;}
	.st13{fill:#0B1F28;}
	.st14{fill:#8F9CA4;}
	.st15{fill:url(#SVGID_7_);}
	.st16{fill:url(#SVGID_8_);}
	.st17{fill:url(#SVGID_9_);}
	.st18{fill:url(#SVGID_10_);}
	.st19{fill:url(#SVGID_11_);}
	.st20{fill:url(#SVGID_12_);}
	.st21{fill:#FFFFFF;}
</style>
<polygon class="st0" points="87.85,77.06 87.85,78.62 80.59,78.62 80.59,66.47 82.53,66.47 82.53,77.06 "/>
<path class="st0" d="M89.07,70.16h1.9v8.45h-1.9V70.16z M89.06,66.59h1.92v1.7h-1.92V66.59z"/>
<g>
	<path class="st0" d="M98.45,70.16v1.44h-2.92v7.02h-1.9V71.6h-1.24v-1.44h1.22v-1.02c0-2.54,1.4-3.32,3.36-3.32
		c0.68,0,1.4,0.1,1.94,0.32l-0.42,1.36c-0.42-0.16-0.86-0.24-1.32-0.24c-1.2,0-1.66,0.56-1.66,1.88v1.02H98.45z"/>
	<path class="st0" d="M101.01,73.54h3.68c0-1.6-0.56-2.28-1.64-2.28C101.59,71.26,101.07,72.04,101.01,73.54 M99.03,74.34
		c0-2.94,1.34-4.38,4.04-4.38c2.96,0,3.58,1.76,3.58,4.14v0.75h-5.66c0.04,1.8,0.74,2.56,2.42,2.56c1.26,0,2.06-0.4,2.72-0.68
		l0.4,1.22c-0.64,0.38-2.08,0.86-3.42,0.86C100.09,78.82,99.03,77.34,99.03,74.34"/>
	<path class="st0" d="M106.85,69.92c0.8-1.36,0.94-2.54,0.94-3.98h1.78c-0.02,2.15-0.52,3.41-1.52,4.73L106.85,69.92z"/>
	<path class="st0" d="M114.73,73.96c1.04,0.36,1.88,0.9,1.88,2.28c0,1.74-1.36,2.58-3.64,2.58c-1.28,0-2.36-0.24-3.2-0.6l0.58-1.38
		c0.66,0.32,1.58,0.58,2.63,0.58c1,0,1.78-0.2,1.78-1c0-0.48-0.36-0.8-1.08-1.06c-0.66-0.22-1.42-0.44-2-0.66
		c-1.02-0.38-1.8-0.94-1.8-2.21c0-1.8,1.6-2.52,3.54-2.52c1.36,0,2.32,0.26,3.1,0.56l-0.58,1.38c-0.68-0.34-1.54-0.56-2.52-0.56
		c-1.2,0-1.72,0.38-1.72,0.94c0,0.46,0.32,0.72,1.04,1C113.18,73.46,114.13,73.74,114.73,73.96"/>
	<path class="st0" d="M132.52,78c-1.08,0.5-2.64,0.82-4.34,0.82c-3.92-0.02-5.66-2.2-5.66-6.28c0-4.26,2.22-6.28,5.84-6.28
		c1.72,0,3.24,0.54,4.17,1.68l-1.18,1.06c-0.68-0.72-1.62-1.22-2.98-1.22c-2.62,0-3.88,1.76-3.88,4.94c0,2.94,1.26,4.54,3.78,4.54
		c0.9,0,1.7-0.12,2.36-0.3V73.7h-2.8V72.2h4.68V78z"/>
</g>
<polygon class="st0" points="87.85,77.06 87.85,78.62 80.59,78.62 80.59,66.47 82.53,66.47 82.53,77.06 "/>
<g>
	<path class="st0" d="M140.23,74.28c0-1.64-0.36-2.98-1.98-2.98c-1.8,0-2.36,1.12-2.36,3.2c0,1.66,0.38,2.98,1.96,2.98
		C139.69,77.48,140.23,76.38,140.23,74.28 M133.95,74.36c0-2.94,1.36-4.4,4.3-4.4c3,0,3.92,1.7,3.92,4.48
		c0,2.94-1.36,4.38-4.32,4.38C134.85,78.82,133.95,77.14,133.95,74.36"/>
	<path class="st0" d="M149.62,74.28c0-1.64-0.36-2.98-1.98-2.98c-1.8,0-2.35,1.12-2.35,3.2c0,1.66,0.38,2.98,1.96,2.98
		C149.08,77.48,149.62,76.38,149.62,74.28 M143.35,74.36c0-2.94,1.36-4.4,4.3-4.4c3,0,3.92,1.7,3.92,4.48
		c0,2.94-1.36,4.38-4.32,4.38C144.24,78.82,143.35,77.14,143.35,74.36"/>
	<path class="st0" d="M158.52,76.82v-5.09c-0.48-0.28-0.94-0.38-1.4-0.38c-1.46,0-2.4,0.82-2.4,3.14c0,1.76,0.6,2.96,2.16,2.96
		C157.52,77.44,158.02,77.24,158.52,76.82 M152.77,74.58c0-2.7,1.11-4.62,4.05-4.62c0.64,0,1.16,0.1,1.7,0.36v-4.26l1.9-0.24V76.4
		l0.16,2.22h-1.64l-0.16-0.56c-0.74,0.54-1.56,0.76-2.5,0.76C153.87,78.82,152.77,77.22,152.77,74.58"/>
</g>
<polygon class="st0" points="90.19,12.71 80.59,12.71 80.59,54.28 110.09,54.28 110.09,46.19 90.19,46.19 "/>
<g>
	<path class="st0" d="M131.22,38.44h7.82v7.27c-1.44,0.55-4.25,1.1-6.93,1.1c-8.65,0-11.53-4.39-11.53-13.31
		c0-8.51,2.74-13.52,11.39-13.52c4.8,0,7.55,1.51,9.81,4.39l5.97-5.49c-3.64-5.21-10.02-6.79-15.99-6.79
		c-13.44,0-20.51,7.34-20.51,21.33c0,13.93,6.38,21.47,20.44,21.47c6.45,0,12.76-1.65,16.19-4.05V30.69h-16.67V38.44z"/>
</g>
<g>
	
		<radialGradient id="SVGID_1_" cx="-265.9684" cy="354.6428" r="1.0498" gradientTransform="matrix(31.9334 0 0 -31.9334 8526.1387 11357.6416)" gradientUnits="userSpaceOnUse">
		<stop  offset="0" style="stop-color:#BF0C3F"/>
		<stop  offset="0.5" style="stop-color:#BF0C3F"/>
		<stop  offset="0.753" style="stop-color:#BD0B3E"/>
		<stop  offset="0.8595" style="stop-color:#B6093A"/>
		<stop  offset="0.9381" style="stop-color:#A90534"/>
		<stop  offset="1" style="stop-color:#99002C"/>
	</radialGradient>
	<path class="st1" d="M34.04,1.52C16.3,1.52,1.9,15.91,1.9,33.67c0,17.76,14.4,32.15,32.14,32.15c17.7,0,32.04-14.26,32.18-31.9
		v-0.5C66.08,15.78,51.73,1.52,34.04,1.52z"/>
	<linearGradient id="SVGID_2_" gradientUnits="userSpaceOnUse" x1="20.8848" y1="5.6734" x2="37.8498" y2="52.2843">
		<stop  offset="0" style="stop-color:#F38895"/>
		<stop  offset="0.0864" style="stop-color:#EB7588"/>
		<stop  offset="0.3141" style="stop-color:#D84869"/>
		<stop  offset="0.5173" style="stop-color:#CA2752"/>
		<stop  offset="0.6866" style="stop-color:#C21344"/>
		<stop  offset="0.8011" style="stop-color:#BF0C3F"/>
		<stop  offset="1" style="stop-color:#BF0C3F"/>
	</linearGradient>
	<path class="st2" d="M12.28,11.91C1.54,22.65,0.45,39.03,9.89,48.47c9.44,9.43,25.8,8.35,36.55-2.4
		C57.2,35.3,58.28,18.93,48.85,9.49c-4.31-4.31-10.06-6.43-16.07-6.43C25.64,3.06,18.13,6.06,12.28,11.91"/>
	<linearGradient id="SVGID_3_" gradientUnits="userSpaceOnUse" x1="12.597" y1="17.1932" x2="51.5095" y2="56.1057">
		<stop  offset="0" style="stop-color:#CD425C"/>
		<stop  offset="0.0892" style="stop-color:#BE3351"/>
		<stop  offset="0.2493" style="stop-color:#AA1F43"/>
		<stop  offset="0.4304" style="stop-color:#9B1039"/>
		<stop  offset="0.648" style="stop-color:#930833"/>
		<stop  offset="1" style="stop-color:#900531"/>
	</linearGradient>
	<path class="st3" d="M32.39,48.08l0.79-0.45l0-27.17l-0.2-0.32l0.2-0.06v-0.04h0.14l2.4-0.82l0.43,0.74c0,0,0.06,0.06,0.06,0.2
		l-0.02,24.74h5.85l0.47,0.73c0.04,0.06,0.07,0.11,0.07,0.3v2.49c0,0.14-0.08,0.2-0.18,0.21h-8.94c-0.21,0.01-0.4-0.1-0.45-0.13
		L32.39,48.08z M61.4,32.19L41.51,32.2v3.19L42,36.05l0,0c0,0,0.06,0.07,0.17,0.07h15.16h1.46h0.01h0.02
		C57.96,48.7,47.34,58.55,34.66,58.55c-6.46,0-12.54-2.51-17.12-7.05c-4.56-4.55-7.08-10.58-7.08-17.01c0-6.43,2.38-12.6,6.94-17.14
		c4.59-4.53,10.37-6.92,17.29-7.07L36,10.26h0.15c0.09-0.01,0.17-0.01,0.17-0.21V7.44c0-0.19-0.06-0.28-0.06-0.28l-0.59-0.74
		l-1.32,0.19l-0.67,0.22c-15.1,0-26.43,12.63-26.43,27.66c0,7.27,2.86,14.12,8.03,19.27c5.17,5.15,12.02,7.76,19.34,7.76
		c7.35,0,14.25-2.77,19.41-7.92c5.18-5.15,8.03-12,8.03-19.27v-1.57L61.4,32.19z M24.19,19.6c-2.39,0-4.33,1.93-4.33,4.3
		c0,2.37,1.94,4.29,4.33,4.29c2.39,0,4.32-1.92,4.32-4.29C28.51,21.53,26.58,19.6,24.19,19.6z"/>
	<polygon class="st4" points="33.04,47.46 32.39,48.08 42.03,48.08 41.41,47.44 	"/>
	<polygon class="st5" points="41.41,45.52 42.03,44.91 35.72,44.91 34.97,45.52 	"/>
	<polygon class="st6" points="35.72,19.23 32.39,19.23 33.01,19.82 35.01,19.82 	"/>
	<linearGradient id="SVGID_4_" gradientUnits="userSpaceOnUse" x1="35.0071" y1="32.3489" x2="35.7209" y2="32.3489">
		<stop  offset="0" style="stop-color:#B4BDC3"/>
		<stop  offset="0.0397" style="stop-color:#AEB7BD"/>
		<stop  offset="0.4983" style="stop-color:#6C737A"/>
		<stop  offset="0.8304" style="stop-color:#434950"/>
		<stop  offset="1" style="stop-color:#333940"/>
	</linearGradient>
	<polygon class="st7" points="35.03,45.47 35.72,44.91 35.72,19.23 35.01,19.82 	"/>
	<linearGradient id="SVGID_5_" gradientUnits="userSpaceOnUse" x1="41.4053" y1="46.4968" x2="42.0336" y2="46.4968">
		<stop  offset="0" style="stop-color:#B3BBC1"/>
		<stop  offset="0.0806" style="stop-color:#A6AEB4"/>
		<stop  offset="0.5196" style="stop-color:#636B70"/>
		<stop  offset="0.8376" style="stop-color:#3A4246"/>
		<stop  offset="1" style="stop-color:#2A3236"/>
	</linearGradient>
	<polygon class="st8" points="41.41,45.52 41.41,47.44 42.03,48.08 42.03,44.91 	"/>
	<polygon class="st9" points="32.39,19.23 32.39,48.08 33.04,47.46 33.01,19.82 	"/>
	<path class="st10" d="M20.2,23.41c0,1.96,1.6,3.55,3.58,3.55c1.97,0,3.57-1.59,3.57-3.55c0-1.97-1.61-3.56-3.57-3.56
		C21.81,19.84,20.2,21.44,20.2,23.41z"/>
	
		<linearGradient id="SVGID_6_" gradientUnits="userSpaceOnUse" x1="-269.7911" y1="370.3456" x2="-269.0594" y2="370.3456" gradientTransform="matrix(8.1027 8.1027 8.1027 -8.1027 -793.9566 5207.2637)">
		<stop  offset="0" style="stop-color:#ABBAC2"/>
		<stop  offset="1" style="stop-color:#262A30"/>
	</linearGradient>
	<path class="st11" d="M19.58,23.41c0,2.31,1.88,4.18,4.2,4.18c2.32,0,4.2-1.87,4.2-4.18c0-2.31-1.88-4.19-4.2-4.19
		C21.46,19.21,19.58,21.09,19.58,23.41z M27.35,23.41c0,1.96-1.61,3.55-3.57,3.55c-1.97,0-3.58-1.59-3.58-3.55
		c0-1.97,1.6-3.56,3.58-3.56C25.75,19.84,27.35,21.44,27.35,23.41z"/>
	<polygon class="st12" points="58.68,34.66 42.01,34.64 41.4,35.29 58.04,35.29 58.37,34.94 	"/>
	<polygon class="st13" points="35.66,9.63 35.66,9.63 35.66,9.63 	"/>
	<polygon class="st14" points="42.01,32.76 60.66,32.73 61.29,32.09 41.4,32.1 	"/>
	
		<linearGradient id="SVGID_7_" gradientUnits="userSpaceOnUse" x1="-269.9305" y1="346.832" x2="-269.1988" y2="346.832" gradientTransform="matrix(53.1048 53.1048 53.1048 -53.1048 -4071.5383 32769.8086)">
		<stop  offset="0" style="stop-color:#B4BDC3"/>
		<stop  offset="1" style="stop-color:#3E454D"/>
	</linearGradient>
	<path class="st15" d="M61.29,33.66v-1.57l-0.63,0.63v0.94c0,7.11-2.76,13.79-7.79,18.83c-5.02,5.03-11.72,7.8-18.85,7.8
		c-7.1,0-13.78-2.77-18.8-7.8c-5.03-5.04-7.79-11.72-7.79-18.83c0-14.69,11.93-26.63,26.6-26.63l1.02-0.01l0.62-0.6L34.02,6.4
		C19.02,6.4,6.8,18.63,6.8,33.66c0,7.27,2.84,14.12,7.98,19.27c5.14,5.15,11.98,7.99,19.25,7.99c7.3,0,14.15-2.84,19.29-7.99
		C58.46,47.79,61.29,40.94,61.29,33.66z"/>
	
		<linearGradient id="SVGID_8_" gradientUnits="userSpaceOnUse" x1="-273.14" y1="339.0844" x2="-272.4083" y2="339.0844" gradientTransform="matrix(-67.4051 0 0 67.4051 -18352.3398 -22822.3496)">
		<stop  offset="0" style="stop-color:#B4BDC3"/>
		<stop  offset="1" style="stop-color:#485159"/>
	</linearGradient>
	<path class="st16" d="M35.04,9l-0.7-0.02h-0.66c-6.44,0.09-12.49,2.65-17.09,7.22c-4.65,4.66-7.21,10.86-7.21,17.46
		c0,6.6,2.56,12.79,7.21,17.45c4.6,4.59,10.68,7.16,17.14,7.24h0.64c12.8-0.16,23.45-10.22,24.31-23.01l0.02-0.68l-0.31,0.29
		l-0.33,0.34c-0.86,12.59-11.4,22.44-24,22.44c-6.42,0-12.46-2.51-17.01-7.05C12.49,46.13,10,40.09,10,33.66
		c0-6.43,2.49-12.48,7.03-17.02c4.56-4.53,10.6-7.03,17.01-7.03l1.62,0.02L35.04,9z"/>
	<path class="st13" d="M35.66,9.63"/>
	
		<linearGradient id="SVGID_9_" gradientUnits="userSpaceOnUse" x1="-272.7984" y1="338.7277" x2="-272.7984" y2="338.7277" gradientTransform="matrix(-67.4051 0 0 67.4051 -18352.3398 -22822.3496)">
		<stop  offset="0" style="stop-color:#A9B7C1"/>
		<stop  offset="1" style="stop-color:#0B1F28"/>
	</linearGradient>
	<path class="st17" d="M35.66,9.63"/>
	<polygon class="st9" points="42.01,32.76 41.4,32.1 41.4,35.29 42.01,34.64 	"/>
	<linearGradient id="SVGID_10_" gradientUnits="userSpaceOnUse" x1="35.0396" y1="8.0241" x2="35.662" y2="8.0241">
		<stop  offset="0" style="stop-color:#B3BBC1"/>
		<stop  offset="0.0806" style="stop-color:#A6AEB4"/>
		<stop  offset="0.5196" style="stop-color:#636B70"/>
		<stop  offset="0.8376" style="stop-color:#3A4246"/>
		<stop  offset="1" style="stop-color:#2A3236"/>
	</linearGradient>
	<polygon class="st18" points="35.04,9.01 35.66,9.63 35.66,6.42 35.04,7.02 	"/>
	
		<radialGradient id="SVGID_11_" cx="-17.2376" cy="-517.4193" r="59.0359" gradientTransform="matrix(0.6971 0 0 0.6971 35.1958 382.9593)" gradientUnits="userSpaceOnUse">
		<stop  offset="0" style="stop-color:#FFFFFF"/>
		<stop  offset="0.35" style="stop-color:#FFFFFF"/>
		<stop  offset="0.511" style="stop-color:#FBFCFC"/>
		<stop  offset="0.6773" style="stop-color:#EEF2F3"/>
		<stop  offset="0.8453" style="stop-color:#DAE1E5"/>
		<stop  offset="1" style="stop-color:#C0CCD2"/>
	</radialGradient>
	<path class="st19" d="M32.74,19.57v28.18h8.96v-2.51h-6.39V19.57H32.74z M33.68,6.75C19.02,6.92,7.12,18.93,7.12,33.66
		c0,7.19,2.8,13.94,7.88,19.03c5.07,5.09,11.84,7.89,19.01,7.89c7.21,0,13.97-2.8,19.05-7.89c5.08-5.09,7.88-11.84,7.88-19.03v-1.22
		l-1.06,0H41.72v2.5h16.65c0,0.06,0,0.32-0.01,0.37C57.5,47.99,46.93,58.07,34.02,58.07c-6.51,0-12.63-2.54-17.25-7.15
		c-4.59-4.6-7.13-10.73-7.13-17.25c0-6.53,2.54-12.66,7.13-17.26c4.62-4.59,10.75-7.14,17.25-7.14c0.28,0,0.98,0,1.29,0.01V6.76
		c-0.25,0-0.68-0.01-1.01-0.01H33.68z"/>
	
		<radialGradient id="SVGID_12_" cx="-18.6902" cy="-517.8245" r="8.6204" gradientTransform="matrix(0.6971 0 0 0.6971 35.1958 382.9593)" gradientUnits="userSpaceOnUse">
		<stop  offset="0" style="stop-color:#FFFFFF"/>
		<stop  offset="0.35" style="stop-color:#FFFFFF"/>
		<stop  offset="0.5369" style="stop-color:#FBFCFC"/>
		<stop  offset="0.7305" style="stop-color:#EEF2F4"/>
		<stop  offset="0.9264" style="stop-color:#DAE2E6"/>
		<stop  offset="1" style="stop-color:#D0DADF"/>
	</radialGradient>
	<path class="st20" d="M19.9,23.41c0,2.13,1.74,3.84,3.86,3.84c2.12,0,3.86-1.72,3.86-3.84c0-2.14-1.74-3.86-3.86-3.86
		C21.64,19.55,19.9,21.27,19.9,23.41"/>
	<g>
		<path class="st21" d="M24.46,20.24c0.89,0,1.69,0.32,2.34,0.82c-0.7-0.92-1.8-1.51-3.04-1.51c-2.13,0-3.87,1.72-3.87,3.86
			c0,1.23,0.6,2.31,1.5,3.02c-0.5-0.65-0.81-1.44-0.81-2.32C20.59,21.96,22.33,20.24,24.46,20.24"/>
		<path class="st21" d="M35.31,6.76c-0.34-0.01-0.98-0.02-1.3-0.02C19.2,6.74,7.12,18.82,7.12,33.66c0,7.2,2.8,13.94,7.88,19.03
			c0.16,0.16,0.33,0.32,0.5,0.48c-4.79-5.03-7.43-11.58-7.43-18.56C8.06,19.8,18.55,7.5,35.31,6.76"/>
		<path class="st21" d="M35.31,45.23c0,0,1.85,0.54,6.39,0.54v-0.54H35.31z"/>
		<path class="st21" d="M35.31,20.36v-0.8h-2.57v28.18c0,0,0.8-4.29,0.8-27.39H35.31z"/>
		<path class="st21" d="M60.93,32.44l-19.21,0v2.5h0.7v-1.8C59.16,33.14,60.93,32.44,60.93,32.44"/>
		<path class="st21" d="M58.38,34.94c-0.01,0.05-0.01,0.32-0.01,0.37c-0.86,12.68-11.43,22.75-24.34,22.75
			c-6.51,0-12.63-2.54-17.25-7.16c-3.01-3.01-5.13-6.67-6.24-10.67c2.89,10.51,12.5,18.12,23.91,18.12
			c12.26,0,23.55-9.6,24.25-23.42H58.38z"/>
	</g>
</g>
</svg>
