<?xml version="1.0" encoding="utf-8"?>
<!-- Generator: Adobe Illustrator 24.1.2, SVG Export Plug-In . SVG Version: 6.00 Build 0)  -->
<svg version="1.1" id="Capa_1" xmlns="http://www.w3.org/2000/svg" xmlns:xlink="http://www.w3.org/1999/xlink" x="0px" y="0px"
	 viewBox="0 0 128.06 63.66" style="enable-background:new 0 0 128.06 63.66;" xml:space="preserve">
<style type="text/css">
	.st0{fill:#231F20;}
	.st1{fill:#FFFFFF;}
</style>
<rect class="st0" width="128.06" height="63.66"/>
<g>
	<path class="st1" d="M36.27,26.69c0,1.13-0.92,2.05-2.05,2.05c-1.13,0-2.05-0.92-2.05-2.05c0-1.13,0.92-2.05,2.05-2.05
		C35.35,24.64,36.27,25.56,36.27,26.69 M43.32,37.49V39h-4.73V24.64h1.53v12.85H43.32z M48.97,41.44c-2.57,2.57-5.98,3.98-9.61,3.98
		c-3.63,0-7.04-1.41-9.61-3.98c-2.57-2.57-3.98-5.98-3.98-9.61c0-7.49,6.1-13.59,13.59-13.59l0.76,0.01v1.38l0,0.13l-0.76-0.01
		c-3.23,0-6.26,1.26-8.55,3.54c-2.28,2.28-3.54,5.32-3.54,8.55c0,3.23,1.26,6.27,3.54,8.55c2.28,2.28,5.32,3.54,8.55,3.54
		c6.34,0,11.64-4.95,12.06-11.28c0,0,0-0.02,0-0.05h-8.1v-1.5h8.96l0.67,0v0.74C52.95,35.46,51.53,38.87,48.97,41.44 M39.35,15.74
		c-8.89,0-16.09,7.21-16.09,16.09c0,8.89,7.21,16.09,16.09,16.09c8.89,0,16.09-7.21,16.09-16.09
		C55.45,22.94,48.24,15.74,39.35,15.74"/>
	<polygon class="st1" points="67.45,21.34 62.64,21.34 62.64,42.15 77.41,42.15 77.41,38.09 67.45,38.09 	"/>
	<g>
		<path class="st1" d="M87.98,34.22h3.91v3.64c-0.72,0.28-2.13,0.55-3.47,0.55c-4.33,0-5.77-2.2-5.77-6.66
			c0-4.26,1.37-6.76,5.7-6.76c2.41,0,3.78,0.76,4.91,2.2l2.99-2.75c-1.82-2.61-5.02-3.4-8-3.4c-6.73,0-10.27,3.67-10.27,10.68
			c0,6.97,3.19,10.75,10.23,10.75c3.23,0,6.39-0.82,8.1-2.03V30.33h-8.34V34.22z"/>
	</g>
</g>
</svg>
